<?xml version="1.0" encoding="UTF-8"?>
<svg width="24px" height="22px" viewBox="0 0 24 22" version="1.1" xmlns="http://www.w3.org/2000/svg" xmlns:xlink="http://www.w3.org/1999/xlink">
    <title>tousujianyi</title>
    <defs>
        <polygon id="path-1" points="0 0 24 0 24 21.7216839 0 21.7216839"></polygon>
    </defs>
    <g id="2021年5月份迭代" stroke="none" stroke-width="1" fill="none" fill-rule="evenodd">
        <g id="20210518-共享平台（最终稿）" transform="translate(-1819.000000, -2637.000000)">
            <g id="tousujianyi" transform="translate(1819.000000, 2637.000000)">
                <mask id="mask-2" fill="white">
                    <use xlink:href="#path-1"></use>
                </mask>
                <g id="Clip-2"></g>
                <path d="M13.7907662,0 C14.225115,0.108565994 14.6596759,0.325825258 14.9854588,0.543084522 L15.2025483,0.760343785 L22.2622229,7.81980619 C23.3481798,8.90597523 23.3481798,10.6435827 22.3707464,11.7297093 L22.2622229,11.8382753 L14.3338507,19.9839067 L22.8053074,19.9839067 C23.4569155,19.9839067 24,20.309732 24,20.8528165 C24,21.5044246 23.5654815,21.7216839 22.913831,21.7216839 L1.1921471,21.7216839 C0.540539012,21.7216839 -0.00254550983,21.5044246 -0.00254550983,20.8528165 C-0.00254550983,20.201166 0.431803317,19.9839067 1.08362353,19.9839067 L7.05691689,19.9839067 L1.51797236,14.2276605 C1.1921471,13.9018777 0.974887838,13.4674864 0.866321844,13.1417036 L0.866321844,12.9244443 L12.9218988,12.8157086 C13.1391581,12.8157086 13.3562476,12.7071851 13.4649409,12.5986191 C13.5735069,12.4898834 13.6820729,12.2727938 13.6820729,12.1641005 L13.6820729,12.0555345 L13.7907662,0 Z M12.3788143,0.108565994 L12.161555,11.2951908 L0.866321844,11.51245 C0.866321844,11.0781012 1.08362353,10.6435827 1.40940637,10.3177574 L1.51797236,10.2092338 L10.9668624,0.868867354 C11.2926452,0.543084522 11.6186402,0.325825258 12.052989,0.217259264 L12.3788143,0.108565994 Z" id="Fill-1" fill="#FFFFFF" mask="url(#mask-2)"></path>
            </g>
        </g>
    </g>
</svg>