<?xml version="1.0" encoding="UTF-8"?>
<svg width="24px" height="24px" viewBox="0 0 24 24" version="1.1" xmlns="http://www.w3.org/2000/svg" xmlns:xlink="http://www.w3.org/1999/xlink">
    <title>yidongduanicon-</title>
    <g id="2021年5月份迭代" stroke="none" stroke-width="1" fill="none" fill-rule="evenodd">
        <g id="20210518-共享平台（最终稿）" transform="translate(-1678.000000, -2637.000000)" fill="#FFFFFF">
            <path d="M1689.91306,2652.73678 C1688.58214,2651.65278 1687.04792,2650.19468 1685.71846,2648.54986 C1684.78577,2647.3969 1683.96103,2646.18691 1684.81269,2645.33498 L1678.83466,2639.37419 C1677.96338,2640.46057 1676.0325,2645.63153 1684.3081,2654.09833 C1693.02633,2663.0207 1698.65081,2661.11196 1699.61878,2660.10593 L1693.7906,2654.28478 C1692.97581,2655.09773 1691.9263,2654.37498 1689.91306,2652.73678 Z M1701.7226,2656.7232 L1701.7226,2656.71774 C1701.7226,2656.71774 1697.17469,2652.18429 1697.1719,2652.18218 C1696.81384,2651.82663 1696.23578,2651.82755 1695.87863,2652.18402 L1694.23035,2653.83376 L1700.07496,2659.67029 C1700.07496,2659.67029 1701.72525,2658.02639 1701.72365,2658.02442 L1701.72803,2658.02096 C1702.10545,2657.64313 1702.06698,2657.0684 1701.72365,2656.7232 L1701.7226,2656.7232 Z M1686.91372,2643.23927 L1686.91372,2643.23476 C1687.08649,2643.06342 1687.18372,2642.83028 1687.18372,2642.58707 C1687.18372,2642.34386 1687.08649,2642.11072 1686.91372,2641.93952 L1686.91372,2641.93327 L1682.23253,2637.26827 C1682.06105,2637.09652 1681.82819,2637 1681.58548,2637 C1681.34268,2637 1681.10992,2637.09652 1680.93834,2637.26827 L1679.29005,2638.91934 L1685.2633,2644.88382 C1685.2633,2644.88382 1686.91372,2643.24206 1686.91372,2643.23927 Z" id="yidongduanicon-"></path>
        </g>
    </g>
</svg>